
<svg width="648px" height="648px" viewBox="0 0 648 648" version="1.1" xmlns="http://www.w3.org/2000/svg" xmlns:xlink="http://www.w3.org/1999/xlink">
    <g id="null" stroke="none" stroke-width="1" fill="none" fill-rule="evenodd">
        <g id="Web-1920-–-1" transform="translate(-999.000000, -401.000000)" stroke="#A80000" stroke-width="5">
            <g id="Component-4-–-1" transform="translate(866.742994, 126.435060)">
                <g id="Component-5-–-1" transform="translate(456.257616, 598.631680) rotate(2.999999) translate(-456.257616, -598.631680) translate(150.758466, 293.131680)">
                    <path d="M9.41754,381.11585 L9.41748,381.11585 L9.41736,381.11585 C9.41687333,381.11585 9.41663,381.11585 9.41663,381.11585 C8.24231,376.497239 7.16193,371.788107 6.20453,367.114771 C2.08753,346.98514 -0.00146,326.263964 -0.00146,305.526718 C-0.00146,284.790117 2.08752,264.069213 6.20453,243.939682 C10.21851,224.320511 16.20709,205.022541 24.00385,186.581889 C31.65863,168.477249 41.13422,151.012899 52.16755,134.674055 C63.09834,118.490193 75.64954,103.272947 89.47254,89.444995 C103.29993,75.6127937 118.51246,63.0569521 134.68769,52.1262611 C151.01844,41.0888182 168.47779,31.6084594 186.58076,23.9484794 C205.01539,16.1487816 224.30854,10.1576316 243.9242,6.14141002 C261.93006,2.45591556 280.46436,0.389671238 299.01239,0.0032825019 C135.78943,3.48985332 2.99784,140.547629 2.99784,305.526718 C2.99784,330.968736 6.11463,356.265528 12.2616,380.714287 C12.2616,380.714287 11.31358,380.848141 9.41754,381.11585 Z M97.23547,529.10637 C97.2349033,529.10588 97.23462,529.105635 97.23462,529.105635 C94.60498,526.653466 91.99347,524.131346 89.47254,521.609358 C75.64948,507.782513 63.09833,492.565287 52.16755,476.380429 C49.19947,471.985189 46.30708,467.450191 43.57075,462.901368 C43.57075,462.901368 45.37886,461.385295 45.37886,461.385295 C59.77418,485.81005 77.51314,508.145542 98.10444,527.771651 C98.10444,527.771651 97.81501,528.216225 97.23615,529.105374 L97.23547,529.10637 Z M221.97283,599.557581 C209.94805,596.144846 198.04046,591.955538 186.58074,587.105893 C185.43273,586.620697 184.2542,586.113309 183.07793,585.597936 C183.07793,585.597936 183.42083,585.09233 183.42083,585.09233 C195.885,590.653835 208.88366,595.413634 222.05712,599.239239 C222.05712,599.239239 222.029127,599.344984 221.97314,599.556473 C221.972933,599.557212 221.97283,599.557581 221.97283,599.557581 Z M296.48168,610.990082 C284.7802,610.648078 272.98455,609.629002 261.42211,607.961078 C261.42211,607.961078 261.43999,607.852977 261.43999,607.852977 C273.04045,609.582604 284.82982,610.637686 296.48168,610.988058 C296.48168,610.988058 296.48168,610.990082 296.48168,610.990082 Z M314.1665,611.001742 L314.16644,611.001742 C314.167133,611.001742 314.16748,611.001742 314.16748,611.001742 C476.18707,606.332061 607.9995,469.298632 607.9995,305.526728 C607.9995,140.531367 475.20153,3.47351129 311.96854,0.0032825019 C330.52344,0.388754957 349.0625,2.45507983 367.07306,6.14143016 C386.68536,10.1562522 405.97852,16.1474022 424.41663,23.9484995 C442.51563,31.6061435 459.97559,41.0865225 476.31147,52.1262812 C492.48762,63.058825 507.70014,75.6146767 521.52662,89.4450151 C535.34998,103.274125 547.90052,118.491371 558.82972,134.674075 C569.86109,151.009808 579.33729,168.474168 586.99525,186.581909 C594.79029,205.021081 600.77796,224.319051 604.79188,243.939703 C608.91017,264.072193 610.99854,284.793087 610.99854,305.526738 C610.99854,326.262051 608.91017,346.983227 604.79188,367.114791 C600.77772,386.737124 594.79005,406.035124 586.99525,424.472615 C579.33949,442.577808 569.86329,460.042128 558.82972,476.380449 C547.90357,492.560948 535.35304,507.778113 521.52662,521.609378 C507.69746,535.442546 492.48493,547.998347 476.31147,558.928132 C459.97877,569.966451 442.51875,579.446779 424.41663,587.105913 C405.98487,594.906145 386.69172,600.897295 367.07306,604.912983 C349.78375,608.451772 331.98346,610.499741 314.16651,611.001742 C314.16651,611.001742 314.166507,611.001742 314.1665,611.001742 Z" id="Subtraction-6"></path>
                </g>
            </g>
        </g>
    </g>
</svg>