
<svg width="920px" height="920px" viewBox="0 0 920 920" version="1.1" xmlns="http://www.w3.org/2000/svg" xmlns:xlink="http://www.w3.org/1999/xlink">
    <g id="null" stroke="none" stroke-width="1" fill="none" fill-rule="evenodd">
        <g id="Web-1920-–-1" transform="translate(-863.000000, -272.000000)" stroke="#A80000" stroke-width="5">
            <g id="Component-4-–-1" transform="translate(866.742994, 126.435060)">
                <g id="Component-5-–-2" transform="translate(456.257576, 605.631640) rotate(-149.000000) translate(-456.257576, -605.631640) translate(123.758406, 273.131640)">
                    <path d="M10.24987,414.798475 L10.24981,414.798475 L10.24969,414.798475 C10.2491633,414.798475 10.2489,414.798475 10.2489,414.798475 C8.97076,409.771944 7.79492,404.646631 6.75287,399.560274 C2.27204,377.651599 -0.0014,355.099094 -0.0014,332.52908 C-0.0014,309.959786 2.27203,287.40757 6.75287,265.498987 C11.12164,244.145887 17.63947,223.142369 26.12531,203.071941 C34.45661,183.367227 44.76966,164.359362 56.77814,146.576502 C68.67499,128.962315 82.33545,112.400163 97.38013,97.3501182 C112.42957,82.2954265 128.98658,68.6299 146.59137,56.7331617 C164.36542,44.7202355 183.36786,34.4020112 203.07074,26.0650362 C223.13464,17.5760022 244.13293,11.0553556 265.48224,6.68418962 C285.07941,2.6729685 305.25177,0.424109851 325.4386,0.00339279656 C147.79053,3.79827687 3.26282,152.969178 3.26282,332.52907 C3.26282,360.219636 6.65503,387.75216 13.34528,414.361699 C13.34528,414.361699 12.3134767,414.507291 10.24987,414.798475 Z M105.82916,575.868664 C105.828547,575.868082 105.82824,575.86779 105.82824,575.86779 C102.96618,573.198965 100.12383,570.453966 97.38012,567.709091 C82.33538,552.660157 68.67498,536.098036 56.77813,518.48279 C53.54772,513.699122 50.39971,508.763281 47.4215,503.812441 C47.4215,503.812441 49.3894,502.16239 49.3894,502.16239 C65.057,528.745825 84.3637,553.055253 106.7749,574.415971 C106.7749,574.415971 106.459897,574.899829 105.82989,575.867543 L105.82916,575.868664 Z M241.59082,652.546329 C228.5033,648.831947 215.54327,644.272419 203.07074,638.994142 C201.82129,638.466028 200.53857,637.913814 199.2586,637.352944 C199.2586,637.352944 199.63159,636.802612 199.63159,636.802612 C213.19732,642.855618 227.34479,648.03613 241.68255,652.199811 C241.68255,652.199811 241.652073,652.314899 241.59112,652.545075 C241.59092,652.545911 241.59082,652.546329 241.59082,652.546329 Z M322.68475,664.989194 C309.94909,664.616953 297.11096,663.507879 284.52661,661.692486 C284.52661,661.692486 284.54608,661.57489 284.54608,661.57489 C297.17175,663.457306 310.00311,664.605665 322.68475,664.987066 C322.68475,664.987066 322.68475,664.989194 322.68475,664.989194 Z M341.93255,665.001799 L341.93249,665.001799 C341.933223,665.001799 341.93359,665.001799 341.93359,665.001799 C518.27252,659.919493 661.73455,510.775076 661.73455,332.52907 C661.73455,152.951484 517.19988,3.78048011 339.54253,0.00339279656 C359.7351,0.423092012 379.91265,2.67203291 399.51494,6.68418962 C420.86058,11.0538443 441.85887,17.5744805 461.92656,26.0650362 C481.62517,34.3994718 500.62822,44.7177063 518.40788,56.7331617 C536.01359,68.6319254 552.5706,82.2974519 567.61906,97.3501182 C582.66423,112.401448 596.32389,128.96359 608.21904,146.576502 C620.22539,164.356 630.53911,183.363834 638.87383,203.071941 C647.35784,223.140775 653.87468,244.144283 658.24334,265.498987 C662.72564,287.410767 664.9986,309.962984 664.9986,332.52908 C664.9986,355.096956 662.72563,377.649491 658.24334,399.560274 C653.87444,420.916797 647.3576,441.920408 638.87383,461.987391 C630.54143,481.692672 620.22783,500.700537 608.21904,518.4828 C596.32732,536.093275 582.66753,552.655407 567.61906,567.709102 C552.56767,582.764811 536.01066,596.430327 518.40788,608.325996 C500.63163,620.339889 481.62858,630.658113 461.92656,638.994153 C441.86577,647.483804 420.86748,654.00443 399.51494,658.374948 C380.69762,662.226512 361.32414,664.455569 341.93254,665.001799 C341.93254,665.001799 341.932543,665.001799 341.93255,665.001799 Z" id="Subtraction-6"></path>
                </g>
            </g>
        </g>
    </g>
</svg>