
<svg width="1063px" height="1064px" viewBox="0 0 1063 1064" version="1.1" xmlns="http://www.w3.org/2000/svg" xmlns:xlink="http://www.w3.org/1999/xlink">
    <g id="null" stroke="none" stroke-width="1" fill="none" fill-rule="evenodd">
        <g id="Web-1920-–-1" transform="translate(-794.000000, -200.000000)" stroke="#810909" stroke-width="5">
            <path d="M796.499961,698.99 C796.499961,698.99 796.499961,698.99 796.499961,698.99 C796.938568,691.90637 797.517121,684.79547 798.222639,677.85559 C800.010465,660.25403 802.710867,642.56439 806.248826,625.2785 C809.741647,608.21624 814.133212,591.14331 819.301488,574.53387 C824.411787,558.10736 830.404382,541.73962 837.112997,525.88519 C843.756464,510.18292 851.260961,494.6101 859.417808,479.59906 C867.513092,464.70267 876.439865,450.01425 885.949881,435.94186 C895.413291,421.93893 905.672472,408.224 916.442325,395.17825 C927.190303,382.15973 938.692247,369.50866 950.628605,357.57626 C962.565084,345.64401 975.220428,334.14599 988.243054,323.40146 C1001.29585,312.63333 1015.01471,302.37827 1029.01841,292.92105 C1043.08774,283.41839 1057.78013,274.49533 1072.68739,266.39987 C1087.70071,258.24747 1103.27749,250.7464 1118.98495,244.10507 C1134.84484,237.39947 1151.21541,231.40973 1167.64234,226.30226 C1184.25323,221.13733 1201.32968,216.74826 1218.39711,213.2568 C1235.68706,209.71972 1253.37963,207.02012 1270.98371,205.23319 C1281.59916,204.156 1292.44171,203.38718 1303.21159,202.95 C1170.52731,208.37599 1045.47353,263.24786 951.085015,357.45745 C859.360073,449.00878 804.46259,570.3012 796.499961,698.99 C796.499961,698.99 796.499961,698.99 796.499961,698.99 Z M1853.88515,700.83 C1853.88126,700.83 1853.87932,700.83 1853.87932,700.83 C1846.33589,571.59265 1791.50269,449.75281 1699.48044,357.75827 C1606.06941,264.37534 1482.29672,209.45773 1350.96107,203.12 C1360.44822,203.57733 1369.97888,204.28827 1379.29037,205.2332 C1396.89444,207.02026 1414.58677,209.71973 1431.87611,213.25681 C1448.93599,216.74561 1466.0122,221.1348 1482.6305,226.30227 C1499.05225,231.408 1515.42356,237.39774 1531.28975,244.10508 C1546.99844,250.74748 1562.57461,258.24854 1577.58558,266.39988 C1592.49048,274.49415 1607.18324,283.41706 1621.25568,292.92106 C1635.25517,302.37495 1648.97354,312.63014 1662.03004,323.40147 C1675.04352,334.13707 1687.69898,345.63508 1699.6451,357.57627 C1711.59048,369.51801 1723.09231,382.1692 1733.83188,395.17826 C1744.60013,408.22254 1754.8593,421.93732 1764.32383,435.94187 C1773.83607,450.01707 1782.76284,464.70548 1790.8559,479.59907 C1799.01226,494.60987 1806.51688,510.18281 1813.16083,525.8852 C1819.86982,541.7411 1825.86229,558.10883 1830.97234,574.53388 C1836.14272,591.15308 1840.53428,608.22614 1844.02514,625.27851 C1847.56197,642.55897 1850.26263,660.24854 1852.05218,677.8556 C1852.81988,685.41883 1853.43502,693.14973 1853.88515,700.83 C1853.88515,700.83 1853.88515,700.83 1853.88515,700.83 Z M1355.9335,1260.62 C1355.9335,1260.62 1355.9335,1260.62 1355.9335,1260.62 C1486.73971,1253.07861 1609.70044,1197.28601 1702.16452,1103.51465 C1793.9519,1010.42969 1847.9363,887.59412 1854.16871,757.64 C1853.71664,767.19531 1853.00234,776.78705 1852.05218,786.14453 C1850.26287,803.74988 1847.56222,821.43909 1844.02514,838.72064 C1840.53182,855.78345 1836.14025,872.85681 1830.97234,889.46637 C1825.86031,905.89587 1819.86784,922.26361 1813.16083,938.11493 C1806.51465,953.82172 1799.01028,969.39465 1790.8559,984.40106 C1782.7574,999.30346 1773.83063,1013.99194 1764.32383,1028.05823 C1754.86202,1042.05884 1744.60285,1055.77368 1733.83188,1068.82202 C1723.08613,1081.83801 1711.58405,1094.48926 1699.6451,1106.42395 C1687.70219,1118.3623 1675.04648,1129.86023 1662.03004,1140.59875 C1648.97947,1151.36511 1635.2611,1161.62011 1621.25568,1171.0791 C1607.17756,1180.58594 1592.48479,1189.50903 1577.58558,1197.60022 C1562.58128,1205.74829 1547.00512,1213.24902 1531.28925,1219.89429 C1515.43617,1226.59778 1499.06511,1232.58777 1482.6305,1237.69788 C1466.01195,1242.86438 1448.936,1247.25354 1431.87685,1250.74341 C1414.59147,1254.27942 1396.89864,1256.97864 1379.29037,1258.76599 C1371.60748,1259.54602 1363.74906,1260.1687 1355.9335,1260.62 C1355.9335,1260.62 1355.9335,1260.62 1355.9335,1260.62 Z" id="Subtraction-8"></path>
        </g>
    </g>
</svg>