
<svg width="1001px" height="961px" viewBox="0 0 1001 961" version="1.1" xmlns="http://www.w3.org/2000/svg" xmlns:xlink="http://www.w3.org/1999/xlink">
    <g id="null" stroke="none" stroke-width="1" fill="none" fill-rule="evenodd">
        <g id="Web-1920-–-1" transform="translate(-825.000000, -271.000000)" stroke="#810909" stroke-width="5">
            <path d="M828.49996,700.9753 C828.49996,700.9753 828.49996,700.9753 828.49996,700.9753 C828.912078,694.31929 829.455591,687.63863 830.118499,681.11873 C831.798043,664.58223 834.335126,647.96303 837.658963,631.7231 C840.940485,615.69325 845.066298,599.65346 849.921833,584.04903 C854.722931,568.61647 860.352854,553.23922 866.655578,538.34413 C872.896943,523.59199 879.947459,508.96153 887.610654,494.85881 C895.216066,480.86378 903.602677,467.06419 912.537261,453.84334 C921.428039,440.68773 931.066489,427.80269 941.184609,415.54634 C951.282194,403.31557 962.088216,391.43004 973.302281,380.21965 C984.516468,369.00944 996.40606,358.20717 1008.6406,348.11278 C1020.90359,337.99626 1033.79238,328.36171 1046.94866,319.47676 C1060.16667,310.54912 1073.97003,302.166 1087.97517,294.56041 C1102.08003,286.90129 1116.71431,279.85411 1131.4712,273.61467 C1146.37149,267.3148 1161.75145,261.68752 1177.18436,256.88911 C1192.79012,252.03669 1208.83324,247.91322 1224.86795,244.63304 C1241.11163,241.30998 1257.73365,238.77373 1274.27253,237.09492 C1284.24552,236.08293 1294.43207,235.36064 1304.55149,234.95 C1179.89477,240.04756 1062.40804,291.5991 973.731091,380.10804 C887.556459,466.11955 835.980767,580.07246 828.49996,700.97529 C828.49996,700.97529 828.49996,700.975293 828.49996,700.9753 Z M1821.89481,702.71 C1821.89481,702.71 1821.89481,702.71 1821.89481,702.71 C1814.80989,581.28579 1763.29433,466.81856 1676.8407,380.39067 C1589.08203,292.65837 1472.79887,241.06386 1349.41096,235.11 C1358.32344,235.53926 1367.27745,236.2072 1376.02546,237.09493 C1392.56422,238.77389 1409.18588,241.30999 1425.4293,244.63305 C1441.4567,247.91073 1457.49971,252.03433 1473.11239,256.88912 C1488.54048,261.68587 1503.92106,267.31319 1518.82729,273.61468 C1533.58554,279.85513 1548.21907,286.90231 1562.3216,294.56042 C1576.32464,302.16488 1590.12824,310.54788 1603.34934,319.47677 C1616.50166,328.35861 1629.38971,337.99325 1641.65616,348.11279 C1653.88254,358.19879 1665.77188,369.00103 1676.9951,380.21966 C1688.21782,391.43881 1699.02384,403.32446 1709.11326,415.54635 C1719.2299,427.80132 1728.86846,440.68621 1737.76023,453.84335 C1746.69704,467.06683 1755.08353,480.86645 1762.68708,494.85882 C1770.34954,508.9613 1777.4003,523.59188 1783.64191,538.34414 C1789.94538,553.24056 1795.57481,568.61788 1800.37577,584.04904 C1805.23316,599.66263 1809.3591,615.7026 1812.63876,631.72311 C1815.96149,647.95791 1818.49881,664.57705 1820.17997,681.11874 C1820.90152,688.22427 1821.47907,695.48739 1821.89481,702.71 C1821.89481,702.71 1821.89481,702.71 1821.89481,702.71 Z M1354.08339,1228.62 C1354.08339,1228.61683 1354.08339,1228.61525 1354.08339,1228.61525 C1476.97306,1221.53481 1592.49333,1169.11818 1679.36218,1081.02101 C1765.59558,993.56862 1816.31337,878.16585 1822.16847,756.07 C1821.74385,765.05244 1821.07277,774.06379 1820.17998,782.85505 C1818.49932,799.39509 1815.96199,816.01392 1812.63877,832.24976 C1809.35713,848.28003 1805.2312,864.32032 1800.37578,879.92481 C1795.57333,895.36017 1789.9434,910.73749 1783.64192,925.62964 C1777.39832,940.38599 1770.34806,955.0166 1762.68709,969.11499 C1755.07858,983.1156 1746.6916,996.91528 1737.76024,1010.13043 C1728.87094,1023.28381 1719.23287,1036.16882 1709.11327,1048.42761 C1699.01792,1060.656 1688.21189,1072.54175 1676.99511,1083.75427 C1665.77486,1094.97021 1653.88502,1105.77234 1641.65617,1115.86108 C1629.39565,1125.97595 1616.50711,1135.61047 1603.34935,1144.49707 C1590.12281,1153.42871 1576.3192,1161.81177 1562.32161,1169.41345 C1548.22553,1177.06848 1533.59149,1184.11523 1518.82681,1190.3584 C1503.93296,1196.65625 1488.55262,1202.28382 1473.1124,1207.08472 C1457.49947,1211.9386 1441.45671,1216.06214 1425.4298,1219.34082 C1409.19033,1222.66296 1392.56818,1225.19885 1376.02547,1226.87805 C1368.80743,1227.61084 1361.4246,1228.1958 1354.08339,1228.62 C1354.08339,1228.62 1354.08339,1228.62 1354.08339,1228.62 Z" id="Subtraction-10" transform="translate(1325.337920, 731.782545) rotate(159.999999) translate(-1325.337920, -731.782545) "></path>
        </g>
    </g>
</svg>